<?xml version="1.0" encoding="utf-8"?>
<!-- Generator: Adobe Illustrator 21.0.0, SVG Export Plug-In . SVG Version: 6.00 Build 0)  -->
<svg version="1.1" id="Layer_1" xmlns="http://www.w3.org/2000/svg" xmlns:xlink="http://www.w3.org/1999/xlink" x="0px" y="0px"
	 viewBox="0 0 384 382.8" style="enable-background:new 0 0 384 382.8;" xml:space="preserve">
<style type="text/css">
	.st0{fill:#FFFFFF;}
</style>
<path d="M0,53.3c0-4.2,0-8.5,0-12.7c0.2-0.6,0.6-1.1,0.7-1.7C3.4,24.3,11,13,24,5.9c5.3-3,11.5-4.4,17.3-6.5c4.3,0,8.5,0,12.8,0
	c6.1,2.3,12.8,3.8,18.3,7.2c21.3,12.9,28.4,40.1,17.1,62.3c-0.5,1-0.6,3.1,0.1,3.7c8.6,8.9,17.4,17.6,26.1,26.3
	c41.7-36.1,111.6-36,153,0c8.7-8.7,17.5-17.4,26.1-26.3c0.7-0.7,0.6-2.7,0.1-3.7c-13.2-25.6-1-56.9,26.1-66.8c3-1.1,6.2-1.8,9.3-2.7
	c4.3,0,8.5,0,12.8,0c0.8,0.3,1.6,0.6,2.4,0.8c18.8,4.2,31.1,15.4,37,33.7c0.7,2.2,1.2,4.5,1.8,6.8c0,4.2,0,8.5,0,12.7
	c-2.4,6.2-4,12.9-7.4,18.5c-13.1,21.1-40,28-62.1,16.8c-1-0.5-3.1-0.6-3.8,0.1c-8.9,8.6-17.6,17.3-26.4,26
	c36,41.6,36.1,110.9,0,152.7c8.4,8.3,16.9,16.6,25.1,25.1c1.9,1.9,3.2,2.1,5.7,0.8c26.8-13.7,59.3,0.6,66.9,29.4
	c0.9,3.2,1.3,6.5,1.9,9.8c0,2,0,4,0,6c-0.2,1.1-0.5,2.2-0.7,3.2c-2.7,17.8-11.9,30.8-29,37.3c-17.3,6.6-33.7,4.6-48.1-7.6
	c-17.3-14.6-21.8-38.3-11.6-58.3c0.5-1,0.7-2.9,0.1-3.5c-8.7-8.9-17.5-17.7-26.3-26.5c-41.6,35.9-111,36.2-153,0
	c-8.4,8.5-16.8,17-25.4,25.4c-1.7,1.7-1.8,2.9-0.7,5.1c11.8,22.4,3.2,50.6-19,63.1c-21.9,12.3-50.3,5.1-63.1-16.7
	c-3.3-5.6-4.9-12.4-7.3-18.6c0-4.2,0-8.5,0-12.7c0.2-0.4,0.6-0.8,0.6-1.3c4.7-30.6,40.6-49.6,69.2-33.7c1.9,1,2.8,0.5,4.1-0.8
	c8.2-8.2,16.4-16.4,24.6-24.6c0.4-0.4,0.7-0.9,1-1.3c-34.9-40.5-37-109.1,0-152.3c-8.5-8.4-17-16.9-25.4-25.4
	c-1.7-1.8-2.9-1.8-5.1-0.7C43,102.3,10,88.3,1.7,60.1C1.2,57.8,0.6,55.5,0,53.3z M263.3,256.2c21.9-21.1,33.3-59.2,20.3-96.6
	c-13.9-39.9-50.5-66.1-92.1-65.6c-43.1,0.5-78.9,27.3-92,68.8c-11.5,36.5,0.3,73.5,21.4,93.4c1.3-11.9,5.1-22.7,11.7-32.5
	c6.6-9.8,15.1-17.5,25.4-23.2c-12-18.4-13.8-22.7-13.2-35.2c0.6-13.4,6-24.9,16.1-33.9c17.2-15.4,43.5-15.8,61.2-1
	c9.6,8,15.2,18.4,16.8,30.8c2,15-2.7,28-13,39C247.6,212.9,260,231.4,263.3,256.2z M190.4,287.9c18,0,33.5-3.7,47.9-11.7
	c1.2-0.6,2.5-2.3,2.5-3.5c0-6.1,0-12.3-0.9-18.3c-3.2-21-20.1-37.1-40.8-39.5c-23.3-2.7-43.4,8.3-51.9,28.3
	c-3.8,8.9-4.3,18.3-4.2,27.9c0,2.8,0.9,4.2,3.3,5.5C160.6,284.2,175.9,287.9,190.4,287.9z M336.4,71.3c14.4,0.1,25.1-10.6,25.1-25
	c0-13.3-11.2-24.4-24.7-24.5c-13.7-0.1-25,10.9-25,24.4C311.8,60.6,322.2,71.3,336.4,71.3z M47.3,310.7c-14.2,0-24.8,10.7-24.8,24.9
	c0,13.4,11.3,24.6,24.9,24.6s24.9-11.2,24.8-24.7C72.1,321.2,61.6,310.7,47.3,310.7z M336.6,310.7c-14.2,0-24.7,10.5-24.8,24.8
	c-0.1,13.5,11.2,24.7,24.8,24.7s25-11.2,24.9-24.6C361.4,321.3,350.8,310.7,336.6,310.7z M47.2,71.5c13.7,0.1,25-10.9,25-24.4
	c0-14.2-10.6-25-24.7-25.1c-14-0.1-24.9,10.7-25,24.8C22.3,60.2,33.6,71.4,47.2,71.5z M167.2,166.9c0,13.7,11.1,24.9,24.5,24.9
	c14.2,0,25-10.7,25-24.7c0-14.1-10.5-24.7-24.8-24.9C178.3,142.1,167.2,153.2,167.2,166.9z"/>
<path class="st0" d="M41.3-0.6c-5.8,2.1-12,3.5-17.3,6.5c-12.9,7.2-20.6,18.5-23.3,33C0.6,39.5,0.3,40,0,40.6C0,26.9,0,13.2,0-0.6
	C13.8-0.6,27.5-0.6,41.3-0.6z"/>
<path class="st0" d="M384,40.6c-0.6-2.3-1.1-4.5-1.8-6.8c-5.9-18.3-18.2-29.5-37-33.7c-0.8-0.2-1.6-0.5-2.4-0.8
	c13.8,0,27.5,0,41.3,0C384,13.1,384,26.8,384,40.6z"/>
</svg>
