<?xml version="1.0" encoding="utf-8"?>
<!-- Generator: Adobe Illustrator 21.0.0, SVG Export Plug-In . SVG Version: 6.00 Build 0)  -->
<svg version="1.1" id="Layer_1" xmlns="http://www.w3.org/2000/svg" xmlns:xlink="http://www.w3.org/1999/xlink" x="0px" y="0px"
	 viewBox="0 0 394 382.8" style="enable-background:new 0 0 394 382.8;" xml:space="preserve">
<style type="text/css">
	.st0{fill:#FFFFFF;}
</style>
<path class="st0" d="M5,130.4c0-43.7,0-87.3,0-131c114.8,0,229.5,0,344.3,0c-0.6,0.2-1.1,0.5-1.7,0.6c-20.7,3.6-35.5,26.7-25.9,48.1
	c1,2.1,0.2,3.1-1.3,4.4c-7.4,6.3-14.8,12.7-22.2,19c-9.2,7.9-18.3,15.7-27.4,23.6c-14.2-8.5-28-8.6-41.2,1.1
	c-2.6,1.9-4.1,1.6-6.4,0.1c-19-11.7-38.1-23.4-57.2-34.9c-2.5-1.5-3.2-2.9-2.6-5.9c3.9-18.4-8.2-36.7-26.8-41
	c-17.9-4.1-36.7,7.3-41.5,25.2c-2.5,9.3-1.3,18.2,3.4,26.8c-13.9,13-27.6,25.9-41.3,38.9c-0.9-0.4-1.7-0.7-2.5-1.1
	c-19.4-10.7-38.9,0-46.3,16.2C6.9,123.7,6.1,127.1,5,130.4z"/>
<path d="M5,130.4c1.1-3.3,1.9-6.7,3.3-9.8c7.4-16.2,26.9-26.9,46.3-16.2c0.8,0.4,1.6,0.7,2.5,1.1c13.7-12.9,27.5-25.8,41.3-38.9
	c-4.7-8.5-5.9-17.5-3.4-26.8c4.7-17.9,23.6-29.3,41.5-25.2c18.6,4.3,30.7,22.5,26.8,41c-0.6,3,0.1,4.3,2.6,5.9
	C185,73,204.1,84.7,223.1,96.4c2.3,1.4,3.8,1.8,6.4-0.1c13.2-9.7,27-9.6,41.2-1.1c9.1-7.8,18.3-15.7,27.4-23.6
	c7.4-6.3,14.7-12.7,22.2-19c1.5-1.2,2.2-2.2,1.3-4.4c-9.6-21.4,5.2-44.5,25.9-48.1c0.6-0.1,1.2-0.4,1.7-0.6c3,0,6,0,9,0
	c5.3,2.2,11,3.8,15.9,6.8c7.7,4.5,11.7,12.1,14.8,20.2c0,5.2,0,10.5,0,15.7c-2.6,4.8-4.5,10.1-7.9,14.3
	c-10.8,13.2-29.6,16.4-44.4,7.9c-2.5-1.4-3.8-1.1-5.7,0.6c-15.2,13.2-30.5,26.2-45.8,39.2c-2.1,1.7-2.3,3.1-1.4,5.6
	c7.9,21.3-3.7,43.2-25.3,47.8c-25.7,5.5-48.3-19-40.6-44.1c0.2-0.6,0.3-1.2,0.6-2.2c-21.2-12.7-42.4-25.4-63.8-38.2
	c-6.4,6-13.8,9.6-22.5,10.3c-6.8,0.5-13.1-1.3-19.2-4.2c-1-0.5-3.1-0.5-3.8,0.2c-13.1,12.3-26,24.8-38.7,36.9
	c1.6,4.8,3.6,9.1,4.3,13.7c3.1,18-9,35.6-26.9,39.6s-36.2-6.7-41.4-24.3c-0.5-1.6-1-3.3-1.5-4.9C5,136.9,5,133.6,5,130.4z
	 M250.6,104.1c-10.4,0-19.1,8.6-19.2,19c0,10.3,8.6,19.2,18.9,19.3c10.4,0.1,19.4-8.8,19.4-19.2
	C269.7,112.7,261.1,104.1,250.6,104.1z M40.5,116.1c-10.6-0.1-19.5,8.5-19.6,19c-0.1,10.2,8.7,19.1,19,19.3
	c10.3,0.1,19.3-9.2,19.4-20.2C59.5,124.1,51.2,116.1,40.5,116.1z M110.7,48.9c0,10.3,8.7,19.1,19,19.2c10,0.1,19.2-9.2,19.3-19.5
	c0.1-10.1-9-18.9-19.3-18.8C119.2,29.9,110.7,38.5,110.7,48.9z M373,34.7c0.1-10.2-8.6-19.1-18.9-19.3c-10-0.3-19.2,8.9-19.5,19.3
	c-0.2,10,8.8,19,19.1,19C364.1,53.7,372.9,45,373,34.7z"/>
<path d="M389,377.4c-2.2,4-5.6,5.4-10.2,5.3c-14.7-0.2-29.5-0.1-44.2-0.1c-7,0-9.5-2.5-9.5-9.5c0-79.9,0-159.8,0-239.7
	c0-7,2.5-9.5,9.5-9.6c15-0.1,30,0,45,0c4.5,0,7.7,1.5,9.5,5.8C389,212.2,389,294.8,389,377.4z M341.2,140.2c0,75.7,0,151,0,226.6
	c5.4,0,10.6,0,15.9,0c5.2,0,10.4,0,15.7,0c0-75.9,0-151.2,0-226.6C362.1,140.2,351.8,140.2,341.2,140.2z"/>
<path d="M5,276.4c1.9-4.1,5.1-5.5,9.6-5.5c15,0.2,30,0,44.9,0.1c6.8,0,9.3,2.4,9.3,9.2c0,31,0,62.1,0,93.1c0,6.9-2.6,9.4-9.5,9.4
	c-14.7,0-29.5-0.1-44.2,0.1c-4.6,0.1-8-1.3-10.2-5.3C5,343.7,5,310,5,276.4z M52.8,366.5c0-26.6,0-53,0-79.5c-10.6,0-21,0-31.6,0
	c0,26.6,0,52.9,0,79.5C31.8,366.5,42.1,366.5,52.8,366.5z"/>
<path class="st0" d="M389,26.3c-3.1-8.1-7.2-15.7-14.8-20.2c-4.9-2.9-10.6-4.5-15.9-6.8c10.3,0,20.5,0,30.8,0
	C389,8.4,389,17.4,389,26.3z"/>
<path d="M175.3,283.5c0,29.7,0,59.4,0,89c0,7.7-2.3,10.1-10,10.1c-14.7,0-29.5,0-44.2,0c-7.2,0-9.7-2.5-9.7-9.7
	c0-59.8,0-119.7,0-179.5c0-6.9,2.5-9.6,9.4-9.6c15-0.1,30-0.1,45,0c6.9,0,9.5,2.6,9.5,9.6C175.4,223.4,175.3,253.5,175.3,283.5z
	 M127.6,200c0,55.8,0,111,0,166.4c10.7,0,21.1,0,31.5,0c0-55.6,0-111,0-166.4C148.5,200,138.2,200,127.6,200z"/>
<path d="M218.7,306.6c0-21.9,0-43.9,0-65.8c0-7.4,2.4-9.9,9.9-9.9c14.7,0,29.5,0,44.2,0c6.9,0,9.8,2.9,9.8,9.8
	c0,44.1,0,88.3,0,132.4c0,7-2.6,9.5-9.4,9.6c-15,0-30,0-45,0c-7,0-9.5-2.5-9.5-9.5C218.6,351,218.7,328.8,218.7,306.6z M234.8,247.2
	c0,40,0,79.6,0,119.3c10.7,0,21.1,0,31.7,0c0-39.8,0-79.4,0-119.3C255.9,247.2,245.4,247.2,234.8,247.2z"/>
</svg>
