<?xml version="1.0" encoding="utf-8"?>
<!-- Generator: Adobe Illustrator 21.0.0, SVG Export Plug-In . SVG Version: 6.00 Build 0)  -->
<svg version="1.1" id="Layer_1" xmlns="http://www.w3.org/2000/svg" xmlns:xlink="http://www.w3.org/1999/xlink" x="0px" y="0px"
	 viewBox="0 0 338 332.2" style="enable-background:new 0 0 338 332.2;" xml:space="preserve">
<path d="M141.8,0.1c4.5,2,6.3,5.3,6.2,10.3c-0.2,10.1,0,20.3-0.1,30.4c-0.1,6.1-4.9,9.8-10.4,8c-3-1-5.4-3.7-5.4-6.9
	c-0.1-11.4-0.1-22.9,0-34.3c0-3.9,2.9-5.7,5.8-7.5C139.2,0.1,140.5,0.1,141.8,0.1z"/>
<path d="M115.5,332.2c-48.8,0-92.8-32.3-106.1-79.1C-1.8,213.7,6.2,178,33.5,147.2c9.6-10.8,20.2-20.7,30.4-31
	c15.9-16,31.9-32,47.9-47.9c5.3-5.3,9.3-5.2,14.6,0.1c11.5,11.5,22.9,22.9,34.4,34.4c5,5,4.9,9.2-0.1,14.2
	c-24.8,24.8-49.5,49.5-74.3,74.3C73,204.8,69.6,223,77.2,239.5c11.5,24.8,44.2,31.9,64.9,13.9c1.5-1.3,2.9-2.6,4.2-4
	c24.4-24.4,48.8-48.7,73.2-73.1c5.3-5.3,9.3-5.3,14.6-0.1c11.5,11.4,23,22.8,34.5,34.3c5.1,5,5.1,9.2,0.2,14.2
	c-24.7,24.8-49.4,49.6-74.3,74.3C172.8,320.7,146.3,331.7,115.5,332.2z M85.2,118.3c-13.1,12.8-26.1,25.6-39.1,38.4
	c-2,2-3.8,4.1-5.5,6.3c-12.9,16.6-19.8,35.5-20.3,56.6c-0.4,20.5,5,39.3,16.9,56.1c15.9,22.5,37.5,36.1,64.8,39.8
	c28.2,3.8,53.5-3.4,74.8-22.2c13.6-12,26-25.4,38.9-38.1c0.3-0.3,0.5-0.7,0.5-0.6c-8.8-8.8-17.4-17.4-26.5-26.5
	c-0.6,0.8-1.4,2-2.4,2.9c-11.7,11.6-22.9,23.6-35.1,34.6c-24,21.6-63.6,17.2-82.9-8.6c-18-24.1-15.8-55.2,5.4-76.7
	c11.2-11.4,22.6-22.6,33.9-33.9c0.8-0.8,1.6-1.7,2.2-2.3C102.1,135.2,93.6,126.7,85.2,118.3z M227.9,241.9
	c8.2-8.1,16.4-16.3,24.3-24.2c-8.4-8.4-17-17-25.4-25.3c-8,8-16.2,16.2-24.3,24.3C211,225.1,219.6,233.7,227.9,241.9z M97.1,106.2
	c8.4,8.4,17.1,17.1,25.5,25.5c7.2-7.3,14.6-14.8,21.8-22c-8.3-8.3-16.9-17-25.4-25.4C111.7,91.5,104.3,99,97.1,106.2z"/>
<path d="M243.7,137c0-5.2,0-10.4,0-15.6c0.1-5.1,3.4-8.9,7.9-9c4.6-0.1,8.1,3.7,8.1,9c0.1,10.4,0,20.7,0,31.1c0,5.3-3.3,9-7.7,9
	c-5,0.1-8.3-3.5-8.3-9.1C243.7,147.3,243.7,142.1,243.7,137z"/>
<path d="M197.7,99.3c-5.2,0-10.4,0-15.6,0c-5.1,0-8.9-3.4-8.9-7.9c-0.1-4.5,3.6-8.1,8.7-8.1c10.6-0.1,21.2-0.1,31.8,0
	c5.2,0,8.7,3.5,8.7,8c0,4.6-3.6,7.9-8.8,8C208.3,99.3,203,99.3,197.7,99.3z"/>
<path d="M172.9,59.9c-4.3-0.5-6.9-1.7-8.2-4.6c-1.4-3.2-1-6.4,1.5-9c4.4-4.6,9-9,13.5-13.5c3.2-3.2,6.4-6.4,9.6-9.6
	c3.7-3.6,8.6-3.8,11.8-0.5s3,8.1-0.7,11.8c-7.3,7.4-14.6,14.7-22,21.9C176.7,58.1,174.3,59.1,172.9,59.9z"/>
<path d="M315.6,140.3c-1,1.9-1.7,4.2-3.2,5.7c-7.5,7.8-15.1,15.4-22.8,23c-3.4,3.4-8.5,3.4-11.6,0.2c-3-3.1-3.1-8,0.2-11.3
	c7.6-7.8,15.4-15.5,23.1-23.1c2.6-2.5,6.2-3.1,9.2-1.7C313.5,134.4,314.9,136.8,315.6,140.3z"/>
<path d="M310.1,207.8c-5.3,0-10.6,0.1-15.9,0c-5.2-0.1-8.7-3.4-8.6-8c0.1-4.5,3.5-7.8,8.5-7.8c10.7-0.1,21.4-0.1,32.1,0
	c5,0,8.5,3.4,8.5,7.9s-3.4,7.9-8.4,7.9C320.9,207.9,315.5,207.8,310.1,207.8z"/>
</svg>
