<?xml version="1.0" encoding="utf-8"?>
<!-- Generator: Adobe Illustrator 21.0.0, SVG Export Plug-In . SVG Version: 6.00 Build 0)  -->
<svg version="1.1" id="Layer_1" xmlns="http://www.w3.org/2000/svg" xmlns:xlink="http://www.w3.org/1999/xlink" x="0px" y="0px"
	 viewBox="0 0 338 382.4" style="enable-background:new 0 0 338 382.4;" xml:space="preserve">
<path d="M172-0.8c48.7,20.2,97.5,40.4,146.2,60.6c10.3,4.3,12.8,7.9,12.8,18.9c0,23,0.2,45.9,0,68.9
	c-0.6,75.3-28.8,138.4-84.5,189.1c-20.9,19-44.7,33.4-70.8,44.3c-4.5,1.9-8.9,1.9-13.4,0C83.8,346.7,34.1,288,13.4,205.1
	C8.8,186.8,7,168,7,149.1C7,125,7,101,7,76.9c0-8.4,3.1-13,10.7-16.2c48.2-20,96.3-39.9,144.5-59.9c1.3-0.5,2.5-1,3.8-1.6
	C168-0.8,170-0.8,172-0.8z M37,132.7c-0.4,17.3-0.3,39.4,4.6,61.1C58,266,99.7,318,166.6,350c1.3,0.6,3.5,0.6,4.8,0
	c77.2-34.5,128.7-112.9,129.5-197.4c0.2-21.5,0-42.9,0.1-64.4c0-2.6-1-3.6-3.2-4.6c-42-17.3-83.9-34.8-125.9-52.1
	c-1.6-0.7-4-0.7-5.6-0.1C124.1,48.8,81.9,66.3,39.7,83.7c-2.2,0.9-2.9,2.1-2.9,4.4C37.1,101.5,37,114.7,37,132.7z"/>
<path d="M151.9,200.2c13.6-13.6,26.2-26.2,38.8-38.8c8.7-8.7,17.4-17.5,26.3-26.2c4.8-4.7,11.2-5.6,16.9-2.9
	c5.5,2.6,9.3,8.2,8.4,14.1c-0.5,3.5-2,7.5-4.4,9.9c-24.7,25.1-49.6,49.9-74.6,74.7c-6.5,6.4-15.3,6.3-21.7-0.1
	c-13.8-13.7-27.6-27.4-41.3-41.3c-6.3-6.3-6.3-15.5-0.3-21.4c6-6,15.1-5.9,21.5,0.3c9.4,9.2,18.6,18.5,27.8,27.8
	C150.2,197.4,150.8,198.7,151.9,200.2z"/>
</svg>
